# xmcd
#
# Track frame offsets:
#	150
#	17382
#	33443
#	50804
#	68351
#	83649
#	100991
#	117317
#	133601
#	150210
#	169144
#	182696
#	198425
#	218573
#	231751
#	246580
#	261832
#	277249
#	289816
#	304280
#	318295
#	334388
#
# Disc length: 4680 seconds
#
# Revision: 1
# Processed by: cddbd v1.5.2PL0 Copyright (c) Steve Scherf et al.
# Submitted via: audiograbber 1.83.01
#
DISCID=3d124616
DTITLE=Various Artist - Bravo Hits 97 CD2 4322
DYEAR=1900
DGENRE=
TTITLE0=Luis Fonsi, Daddy Yankee - Despacito
TTITLE1=Alvaro Soler - Animal
TTITLE2=Maroon 5, Featuring Future - Cold
TTITLE3=Lorde - Green Light
TTITLE4=Imagine Dragons - Believer
TTITLE5=Welshly Arms - Legendary
TTITLE6=Dada Ante Portas - 400 Rainy Days
TTITLE7=Jon Bellion - All Time Low
TTITLE8=Jp Cooper - September Song
TTITLE9=Milky Chance - Blossom
TTITLE10=Sigrid - Kill My Vibe
TTITLE11=Astrid S - Breathe
TTITLE12=The Weeknd, Featuring Daft Punk - I Feel It Coming
TTITLE13=Julia Michaels - Issues
TTITLE14=Marian Hill - Down
TTITLE15=Major Lazer, Featuring Partynextdoor, Featuring Nicki Minaj - Run Up
TTITLE16=Bruno Mars - That' S What I Like
TTITLE17=Linkin Park and Kiiara - Heavy
TTITLE18=James Blunt - Bartender
TTITLE19=Kunz - Marie
TTITLE20=Clueso, Featuring Kat Frankie - Wenn Du Liebst
TTITLE21=Adel Tawil - Ist Da Jemand
EXTD=
EXTT0=
EXTT1=
EXTT2=
EXTT3=
EXTT4=
EXTT5=
EXTT6=
EXTT7=
EXTT8=
EXTT9=
EXTT10=
EXTT11=
EXTT12=
EXTT13=
EXTT14=
EXTT15=
EXTT16=
EXTT17=
EXTT18=
EXTT19=
EXTT20=
EXTT21=
PLAYORDER=
